<?xml version="1.0"?>
<svg xmlns="http://www.w3.org/2000/svg" xmlns:xlink="http://www.w3.org/1999/xlink" xmlns:svgjs="http://svgjs.com/svgjs" version="1.1" width="512" height="512" x="0" y="0" viewBox="0 0 74 74" style="enable-background:new 0 0 512 512" xml:space="preserve" class=""><g><g xmlns="http://www.w3.org/2000/svg" id="Numbers"><text fill="rgb(0,0,0)" font-family="ArialMT, Arial" font-size="18" transform="translate(31.995 -18.544)" svgjs:data="{&quot;leading&quot;:&quot;1.3&quot;}">6<tspan x="-5.005" y="124" svgjs:data="{&quot;leading&quot;:&quot;1.3&quot;}">16</tspan><tspan x="-5.005" y="248" svgjs:data="{&quot;leading&quot;:&quot;1.3&quot;}">26</tspan><tspan x="-5.005" y="372" svgjs:data="{&quot;leading&quot;:&quot;1.3&quot;}">36</tspan><tspan x="-5.005" y="496" svgjs:data="{&quot;leading&quot;:&quot;1.3&quot;}">46</tspan><tspan x="-5.005" y="620" svgjs:data="{&quot;leading&quot;:&quot;1.3&quot;}">56</tspan><tspan x="-5.005" y="744" svgjs:data="{&quot;leading&quot;:&quot;1.3&quot;}">66</tspan><tspan x="-5.005" y="868" svgjs:data="{&quot;leading&quot;:&quot;1.3&quot;}">76</tspan><tspan x="-5.005" y="992" svgjs:data="{&quot;leading&quot;:&quot;1.3&quot;}">86</tspan><tspan x="-5.005" y="1116" svgjs:data="{&quot;leading&quot;:&quot;1.3&quot;}">96</tspan><tspan x="-10.011" y="1240" svgjs:data="{&quot;leading&quot;:&quot;1.3&quot;}">106</tspan><tspan letter-spacing="-.074em" x="-9.343" y="1364" svgjs:data="{&quot;leading&quot;:&quot;1.3&quot;}">1</tspan><tspan x="-.668" y="1364" svgjs:data="{&quot;leading&quot;:&quot;1.3&quot;}">16</tspan><tspan x="-10.011" y="1488" svgjs:data="{&quot;leading&quot;:&quot;1.3&quot;}">126</tspan><tspan x="-10.011" y="1612" svgjs:data="{&quot;leading&quot;:&quot;1.3&quot;}">136</tspan><tspan x="-10.011" y="1736" svgjs:data="{&quot;leading&quot;:&quot;1.3&quot;}">146</tspan><tspan x="-10.011" y="1860" svgjs:data="{&quot;leading&quot;:&quot;1.3&quot;}">156</tspan><tspan x="-10.011" y="1984" svgjs:data="{&quot;leading&quot;:&quot;1.3&quot;}">166</tspan><tspan x="-10.011" y="2108" svgjs:data="{&quot;leading&quot;:&quot;1.3&quot;}">176</tspan><tspan x="-10.011" y="2232" svgjs:data="{&quot;leading&quot;:&quot;1.3&quot;}">186</tspan><tspan x="-10.011" y="2356" svgjs:data="{&quot;leading&quot;:&quot;1.3&quot;}">196</tspan><tspan x="-10.011" y="2480" svgjs:data="{&quot;leading&quot;:&quot;1.3&quot;}">206</tspan><tspan x="-10.011" y="2604" svgjs:data="{&quot;leading&quot;:&quot;1.3&quot;}">216</tspan><tspan x="-10.011" y="2728" svgjs:data="{&quot;leading&quot;:&quot;1.3&quot;}">226</tspan><tspan x="-10.011" y="2852" svgjs:data="{&quot;leading&quot;:&quot;1.3&quot;}">236</tspan><tspan x="-10.011" y="2976" svgjs:data="{&quot;leading&quot;:&quot;1.3&quot;}">246</tspan><tspan x="-10.011" y="3100" svgjs:data="{&quot;leading&quot;:&quot;1.3&quot;}">256</tspan><tspan x="-10.011" y="3224" svgjs:data="{&quot;leading&quot;:&quot;1.3&quot;}">266</tspan><tspan x="-10.011" y="3348" svgjs:data="{&quot;leading&quot;:&quot;1.3&quot;}">276</tspan><tspan x="-10.011" y="3472" svgjs:data="{&quot;leading&quot;:&quot;1.3&quot;}">286</tspan><tspan x="-10.011" y="3596" svgjs:data="{&quot;leading&quot;:&quot;1.3&quot;}">296</tspan></text></g><g xmlns="http://www.w3.org/2000/svg" id="Icons"><path d="m31.581 20.514c-13.348 0-23.413-3.98-23.413-9.257s10.065-9.257 23.413-9.257 23.412 3.979 23.412 9.257-10.065 9.257-23.412 9.257zm0-16.514c-12.619 0-21.413 3.824-21.413 7.257s8.794 7.257 21.413 7.257 21.412-3.825 21.412-7.257-8.793-7.257-21.412-7.257z" fill="#fefedf" data-original="#000000" style="" class=""/><path d="m9.168 24.643a1 1 0 0 1 -1-1v-12.386a1 1 0 1 1 2 0v12.386a1 1 0 0 1 -1 1z" fill="#fefedf" data-original="#000000" style="" class=""/><path d="m9.168 37.028a1 1 0 0 1 -1-1v-12.385a1 1 0 0 1 2 0v12.385a1 1 0 0 1 -1 1z" fill="#fefedf" data-original="#000000" style="" class=""/><path d="m9.168 49.414a1 1 0 0 1 -1-1v-12.386a1 1 0 0 1 2 0v12.386a1 1 0 0 1 -1 1z" fill="#fefedf" data-original="#000000" style="" class=""/><path d="m9.168 61.8a1 1 0 0 1 -1-1v-12.386a1 1 0 0 1 2 0v12.386a1 1 0 0 1 -1 1z" fill="#fefedf" data-original="#000000" style="" class=""/><path d="m45.44 31.13a1 1 0 0 1 -.278-1.961c4.828-1.4 7.828-3.518 7.828-5.529a1 1 0 1 1 2 0c0 3.072-3.293 5.718-9.271 7.45a1 1 0 0 1 -.279.04z" fill="#fefedf" data-original="#000000" style="" class=""/><path d="m28.471 32.82h-.051c-1.089-.054-2.059-.127-2.966-.224a1 1 0 0 1 .211-1.989c.87.093 1.8.164 2.855.216a1 1 0 0 1 -.049 2z" fill="#fefedf" data-original="#000000" style="" class=""/><path d="m18.561 31.36a1.022 1.022 0 0 1 -.256-.033c-6.441-1.7-10.135-4.5-10.135-7.687a1 1 0 0 1 2 0c0 2.143 3.312 4.347 8.644 5.753a1 1 0 0 1 -.253 1.967z" fill="#fefedf" data-original="#000000" style="" class=""/><path d="m35.469 32.78a1 1 0 0 1 -.068-2c1-.069 1.989-.158 2.925-.266a1 1 0 0 1 .229 1.987c-.967.111-1.983.2-3.017.274-.023.004-.047.005-.069.005z" fill="#fefedf" data-original="#000000" style="" class=""/><path d="m53.993 24.643a1 1 0 0 1 -1-1v-12.386a1 1 0 1 1 2 0v12.386a1 1 0 0 1 -1 1z" fill="#fefedf" data-original="#000000" style="" class=""/><path d="m31.581 45.285c-13.348 0-23.413-3.979-23.413-9.257a1 1 0 0 1 2 0c0 3.433 8.794 7.257 21.413 7.257s21.412-3.824 21.412-7.257a1 1 0 0 1 2 0c0 5.278-10.065 9.257-23.412 9.257z" fill="#fefedf" data-original="#000000" style="" class=""/><path d="m53.993 37.028a1 1 0 0 1 -1-1v-12.385a1 1 0 1 1 2 0v12.385a1 1 0 0 1 -1 1z" fill="#fefedf" data-original="#000000" style="" class=""/><path d="m31.58 57.67c-13.063 0-23.1-3.867-23.406-9.005a1.765 1.765 0 0 1 -.014-.245 1 1 0 0 1 2 0c.159 3.479 8.99 7.25 21.42 7.25a49.51 49.51 0 0 0 13.452-1.7 1 1 0 1 1 .555 1.922 51.539 51.539 0 0 1 -14.007 1.778z" fill="#fefedf" data-original="#000000" style="" class=""/><path d="m53.993 49.414a1 1 0 0 1 -1-1v-12.386a1 1 0 0 1 2 0v12.386a1 1 0 0 1 -1 1z" fill="#fefedf" data-original="#000000" style="" class=""/><path d="m31.58 70.06c-13.351 0-23.42-3.981-23.42-9.26a1 1 0 0 1 2 0c0 3.434 8.8 7.26 21.42 7.26a48.1 48.1 0 0 0 14.4-1.991 1 1 0 0 1 .622 1.9 50.165 50.165 0 0 1 -15.022 2.091z" fill="#fefedf" data-original="#000000" style="" class=""/><path d="m53.99 50.54a1 1 0 0 1 -1-1v-1.12a1 1 0 0 1 2 0v1.12a1 1 0 0 1 -1 1z" fill="#fefedf" data-original="#000000" style="" class=""/><path d="m54.635 72a11.739 11.739 0 1 1 11.739-11.739 11.752 11.752 0 0 1 -11.739 11.739zm0-21.478a9.739 9.739 0 1 0 9.739 9.739 9.75 9.75 0 0 0 -9.739-9.739z" fill="#fefedf" data-original="#000000" style="" class=""/><path d="m63.271 67.64a1 1 0 0 1 -.809-.411 9.719 9.719 0 0 0 -15.668 0 1 1 0 1 1 -1.607-1.19 11.717 11.717 0 0 1 18.89.016 1 1 0 0 1 -.219 1.4.988.988 0 0 1 -.587.185z" fill="#fefedf" data-original="#000000" style="" class=""/><path d="m54.635 63.26a4.755 4.755 0 1 1 4.755-4.755 4.76 4.76 0 0 1 -4.755 4.755zm0-7.51a2.755 2.755 0 1 0 2.755 2.755 2.758 2.758 0 0 0 -2.755-2.755z" fill="#fefedf" data-original="#000000" style="" class=""/></g></g></svg>
