<?xml version="1.0"?>
<svg xmlns="http://www.w3.org/2000/svg" xmlns:xlink="http://www.w3.org/1999/xlink" xmlns:svgjs="http://svgjs.com/svgjs" version="1.1" width="512" height="512" x="0" y="0" viewBox="0 0 512 512" style="enable-background:new 0 0 512 512" xml:space="preserve" class=""><g><g xmlns="http://www.w3.org/2000/svg" id="Outline"><path d="M184,120H328a8,8,0,0,1,5.657,2.343l88,88A8,8,0,0,1,424,216v24H408V219.313l-36-36-14.343,14.344-11.314-11.314L360.687,172,344,155.313l-24,24V192H304V176a8,8,0,0,1,2.343-5.657L332.687,144l-8-8H307.313L280,163.313v14.852a16,16,0,1,1-16,0V168H240V152h28.686l16-16H224v16H208V136H187.093l-12.456,11.323,15.02,15.02-11.314,11.314L162.785,158.1l-8.6,7.821-10.763-11.838,35.2-32A8,8,0,0,1,184,120ZM16,80a24,24,0,0,1,46.624-8H80a8,8,0,0,1,5.207,1.926L138.959,120H152v16H136a8,8,0,0,1-5.207-1.926L77.041,88H62.624A24,24,0,0,1,16,80Zm16,0a8,8,0,1,0,8-8A8.009,8.009,0,0,0,32,80ZM16,304a24,24,0,0,1,46.624-8H72v16H62.624A24,24,0,0,1,16,304Zm16,0a8,8,0,1,0,8-8A8.009,8.009,0,0,0,32,304ZM16,216a24,24,0,0,1,46.624-8H72v16H62.624A24,24,0,0,1,16,216Zm16,0a8,8,0,1,0,8-8A8.009,8.009,0,0,0,32,216ZM16,432a24,24,0,0,1,46.624-8H84.686l69.657-69.657,11.314,11.314-72,72A8,8,0,0,1,88,440H62.624A24,24,0,0,1,16,432Zm16,0a8,8,0,1,0,8-8A8.009,8.009,0,0,0,32,432ZM16,368a24,24,0,0,1,46.624-8H76.687l21.656-21.657,11.314,11.314-24,24A8,8,0,0,1,80,376H62.624A24,24,0,0,1,16,368Zm16,0a8,8,0,1,0,8-8A8.009,8.009,0,0,0,32,368Zm68-224a8,8,0,0,1,5.657,2.343l12,12-11.314,11.314L96.687,160H86.624a24,24,0,1,1,0-16Zm-28,8a8,8,0,1,0-8,8A8.009,8.009,0,0,0,72,152ZM48,264H72V248H48Zm448-8a24,24,0,0,1-46.624,8H440V248h9.376A24,24,0,0,1,496,256Zm-16,0a8,8,0,1,0-8,8A8.009,8.009,0,0,0,480,256ZM496,80a24,24,0,0,1-46.624,8H419.313l-45.656,45.657-11.314-11.314,48-48A8,8,0,0,1,416,72h33.376A24,24,0,0,1,496,80Zm-16,0a8,8,0,1,0-8,8A8.009,8.009,0,0,0,480,80Zm16,64a24,24,0,0,1-46.624,8H427.313l-21.656,21.657-11.314-11.314,24-24A8,8,0,0,1,424,136h25.376A24,24,0,0,1,496,144Zm-16,0a8,8,0,1,0-8,8A8.009,8.009,0,0,0,480,144Zm16,176a24,24,0,0,1-46.624,8H432a8,8,0,0,1-5.657-2.343L424,323.313V368a8,8,0,0,1-3,6.247L401.31,390l34,34h14.062a24,24,0,1,1,0,16H432a8,8,0,0,1-5.657-2.343l-37.6-37.6L381,406.247A8,8,0,0,1,376,408H296a8,8,0,0,1-8-8V344H128a8,8,0,0,1-5.657-2.343l-32-32A8,8,0,0,1,88,304V208a8,8,0,0,1,2.619-5.919l40-36.364,10.762,11.839-8.649,7.863L147.313,200h14.852a16,16,0,1,1,0,16H144a8,8,0,0,1-5.657-2.343L120.88,196.193,104,211.539V264l19.2-14.4A8,8,0,0,1,128,248h18.165a16,16,0,1,1,0,16h-15.5L104,284v16.686L131.314,328h52.43l.192-24h-26.1a16,16,0,1,1,0-16h30.32l29.6-37A8,8,0,0,1,224,248h8V227.313l-11.873-11.872a16.076,16.076,0,1,1,11.314-11.314l14.216,14.216A8,8,0,0,1,248,224v24h35.056l5.651-11.3a16.09,16.09,0,1,1,12.377,11.023l-3.718,7.435,12.727,16.969a16,16,0,1,1-12.8,9.593L284,264H227.845l-27.867,34.834L199.744,328H227.47l14.547-24.244A15.993,15.993,0,1,1,256,312c-.089,0-.174-.012-.262-.013L246.13,328H368V315.313l-3.873-3.872a16.076,16.076,0,1,1,11.314-11.314l6.216,6.216A8,8,0,0,1,384,312v16h24V275.313L380.687,248h-6.852a16,16,0,1,1,0-16H384a8,8,0,0,1,5.657,2.343l32,32A8,8,0,0,1,424,272v28.687L435.313,312h14.063A24,24,0,0,1,496,320ZM464,432a8,8,0,1,0,8-8A8.009,8.009,0,0,0,464,432Zm-56-88H304v48h69.194l20-16H320V360h88Zm72-24a8,8,0,1,0-8,8A8.009,8.009,0,0,0,480,320Zm-8-128H440v16h32Zm8,192h16V368H480Zm-40,0h24V368H440Zm-168-8H219.314l-40.776,40.775a24.03,24.03,0,1,1-14.244-8.383l46.049-46.049A8,8,0,0,1,216,360h56ZM168,432a8,8,0,1,0-8,8A8.009,8.009,0,0,0,168,432Zm42.343-13.657,11.314,11.314L243.313,408H272V392H240a8,8,0,0,0-5.657,2.343Zm-8-308.686,11.314-11.314-32-32A8,8,0,0,0,176,64H128V80h44.687Zm74.1-7A7.993,7.993,0,0,1,272,104H240V88h29.578l21.984-14.656A7.993,7.993,0,0,1,296,72h25.376a24,24,0,1,1,0,16H298.422ZM336,80a8,8,0,1,0,8-8A8.009,8.009,0,0,0,336,80ZM173.657,106.343l-16-16-11.314,11.314,16,16Z" fill="#fefedf" data-original="#000000" style=""/></g></g></svg>
