<?xml version="1.0" encoding="utf-8"?>
<!-- Generator: Adobe Illustrator 16.0.0, SVG Export Plug-In . SVG Version: 6.00 Build 0)  -->
<!DOCTYPE svg PUBLIC "-//W3C//DTD SVG 1.1//EN" "http://www.w3.org/Graphics/SVG/1.1/DTD/svg11.dtd">
<svg version="1.1" id="Capa_1" xmlns="http://www.w3.org/2000/svg" xmlns:xlink="http://www.w3.org/1999/xlink" x="0px" y="0px"
	 width="178px" height="105px" viewBox="0 0 178 105" enable-background="new 0 0 178 105" xml:space="preserve">
<path fill="#FFFFFF" d="M16.568,59.43c-3.819,0-7.067,1.586-10.204,4.162v-4.007H1.66v43.121h4.704V85.249
	c3.136,2.577,6.385,4.163,10.204,4.163c7.865,0,14.243-6.712,14.243-14.992C30.811,66.143,24.433,59.43,16.568,59.43z
	 M16.471,84.585c-5.326,0-9.643-4.545-9.643-10.151c0-5.604,4.317-10.148,9.643-10.148c5.326,0,9.643,4.546,9.643,10.148
	C26.114,80.04,21.796,84.585,16.471,84.585z"/>
<path fill="#FFFFFF" d="M40.27,89.505h-5.286V59.512h5.286v5.518c0.536-1.493,1.638-2.768,3.304-3.82s3.304-1.581,4.912-1.581
	c2.682,0,4.019,0.847,4.585,1.116l-2.769,4.412c-0.388-0.071-1.219-0.299-2.635-0.299c-1.992,0-3.71,0.977-5.185,2.586
	c-1.475,1.608-2.212,3.484-2.212,5.629V89.505z"/>
<path fill="#FFFFFF" d="M67.361,59.404c3.819,0,6.431,1.584,10.351,4.16v-3.979h4.704v29.793h-4.704v-4.153
	c-3.92,2.574-6.532,4.16-10.351,4.16c-7.865,0-14.241-6.712-14.241-14.99C53.12,66.114,59.496,59.404,67.361,59.404z M67.311,84.559
	c5.326,0,9.643-4.545,9.643-10.149S72.638,64.26,67.311,64.26c-5.326,0-9.643,4.545-9.643,10.149S61.985,84.559,67.311,84.559z"/>
<path fill="#FFFFFF" d="M161.898,59.404c3.819,0,7.545,1.584,9.896,4.16v-3.979h4.705v29.793h-4.705v-4.153
	c-2.351,2.574-6.076,4.16-9.896,4.16c-7.864,0-14.241-6.712-14.241-14.99C147.657,66.114,154.034,59.404,161.898,59.404z
	 M162.307,84.559c5.323,0,9.642-4.545,9.642-10.149s-4.317-10.149-9.642-10.149c-5.326,0-9.646,4.545-9.646,10.149
	S156.979,84.559,162.307,84.559z"/>
<path fill="#FFFFFF" d="M100.497,89.505c-4.19,0-7.667-1.423-10.435-4.267c-2.728-2.92-4.09-6.51-4.09-10.776
	c0-4.342,1.363-7.933,4.09-10.776c2.768-2.844,6.244-4.266,10.435-4.266c2.879,0,5.396,0.721,7.547,2.161
	c2.151,1.442,3.765,3.43,4.842,5.966l-4.842,2.018c-1.498-3.535-4.129-5.304-7.896-5.304c-2.42,0-4.516,0.979-6.281,2.94
	c-1.729,1.959-2.594,4.379-2.594,7.261s0.863,5.304,2.594,7.261c1.767,1.961,3.861,2.941,6.281,2.941
	c3.883,0,6.608-1.77,8.185-5.305l4.728,2.02c-1.039,2.534-2.662,4.523-4.873,5.964C105.979,88.783,103.414,89.505,100.497,89.505z"
	/>
<path fill="#FFFFFF" d="M128.447,89.505c-2.299,0-4.203-0.709-5.717-2.126c-1.514-1.418-2.289-3.852-2.328-6.378l-0.028-16.69h-4.94
	v-4.824h4.94l0.019-4.827l5.299-2.844l-0.031,7.671h6.896v4.824h-6.896l0.031,14.967c0,1.877,0.363,3.611,1.091,4.281
	s1.553,1.004,2.472,1.004c0.419,0,0.833-0.047,1.234-0.143c0.402-0.096,0.775-0.221,1.119-0.374l1.668,4.712
	C131.896,89.255,130.286,89.505,128.447,89.505z"/>
<g>
	<path fill="#E30613" d="M60.225,22.088c-5.905,0-10.693,4.788-10.693,10.693c0,5.906,4.788,10.693,10.693,10.693
		c5.906,0,10.692-4.787,10.692-10.693C70.917,26.875,66.131,22.088,60.225,22.088z M60.225,39.415c-3.664,0-6.634-2.97-6.634-6.634
		c0-3.664,2.97-6.634,6.634-6.634s6.633,2.97,6.633,6.634C66.858,36.445,63.889,39.415,60.225,39.415z"/>
	<path fill="#E30613" d="M38.547,28.625c-4.101,0-7.424,3.324-7.424,7.424c0,4.101,3.324,7.424,7.424,7.424s7.423-3.324,7.423-7.424
		C45.97,31.949,42.646,28.625,38.547,28.625z M38.547,40.469c-2.441,0-4.42-1.979-4.42-4.42c0-2.441,1.979-4.419,4.42-4.419
		c2.44,0,4.418,1.979,4.418,4.419C42.965,38.489,40.987,40.469,38.547,40.469z"/>
	<path fill="#E30613" d="M88.989,13.449c-8.292,0-15.013,6.721-15.013,15.013c0,8.291,6.722,15.012,15.013,15.012
		c8.29,0,15.012-6.721,15.012-15.012C104.001,20.17,97.279,13.449,88.989,13.449z M88.989,38.758
		c-5.688,0-10.297-4.609-10.297-10.296c0-5.688,4.61-10.297,10.297-10.297c5.687,0,10.296,4.61,10.296,10.297
		C99.285,34.148,94.676,38.758,88.989,38.758z"/>
	<path fill="#E30613" d="M127.398,3.083c-11.155,0-20.197,9.042-20.197,20.196c0,11.154,9.042,20.195,20.197,20.195
		c11.151,0,20.193-9.042,20.193-20.195C147.593,12.125,138.551,3.083,127.398,3.083z"/>
</g>
<path fill="#FFFFFF" d="M144.174,54.504c0,0.854-0.302,1.581-0.902,2.18c-0.6,0.602-1.326,0.9-2.18,0.9s-1.58-0.3-2.182-0.9
	c-0.6-0.599-0.9-1.326-0.9-2.18s0.301-1.58,0.9-2.182c0.601-0.6,1.328-0.9,2.182-0.9s1.58,0.3,2.18,0.9
	C143.872,52.924,144.174,53.648,144.174,54.504z M143.734,59.512v29.993h-5.286V59.512H143.734z"/>
</svg>
